<svg width="50" height="50" viewBox="0 0 50 50" fill="none" xmlns="http://www.w3.org/2000/svg">
<path d="M25 43.75C27.4623 43.75 29.9005 43.265 32.1753 42.3227C34.4502 41.3805 36.5172 39.9993 38.2582 38.2582C39.9993 36.5172 41.3805 34.4502 42.3227 32.1753C43.265 29.9005 43.75 27.4623 43.75 25C43.75 22.5377 43.265 20.0995 42.3227 17.8247C41.3805 15.5498 39.9993 13.4828 38.2582 11.7417C36.5172 10.0006 34.4502 8.61953 32.1753 7.67726C29.9005 6.73498 27.4623 6.25 25 6.25M25 43.75C22.5377 43.75 20.0995 43.265 17.8247 42.3227C15.5498 41.3805 13.4828 39.9993 11.7417 38.2582C10.0006 36.5172 8.61953 34.4502 7.67726 32.1753C6.73498 29.9005 6.25 27.4623 6.25 25C6.25 22.5377 6.73498 20.0995 7.67726 17.8247C8.61953 15.5498 10.0006 13.4828 11.7417 11.7417C13.4828 10.0006 15.5498 8.61953 17.8247 7.67726C20.0995 6.73498 22.5377 6.25 25 6.25M25 43.75C30.7521 43.75 33.2104 32.9937 33.2104 25C33.2104 17.0062 30.7521 6.25 25 6.25M25 43.75C19.2479 43.75 16.7896 32.9937 16.7896 25C16.7896 17.0062 19.2479 6.25 25 6.25M7.29167 18.75H42.7083M7.29167 31.25H42.7083" stroke="white" stroke-width="1.5" stroke-linecap="round" stroke-linejoin="round"/>
</svg>
