<svg width="50" height="49" viewBox="0 0 50 49" fill="none" xmlns="http://www.w3.org/2000/svg">
<path d="M42.8 6.32711C41.3027 4.82988 39.5013 4.08195 37.3957 4.08331H11.9014C9.79438 4.08331 7.99295 4.83125 6.49709 6.32711C4.99987 7.82433 4.25194 9.62576 4.2533 11.7314V37.2257C4.2533 39.3327 5.00123 41.1341 6.49709 42.63C7.99431 44.1272 9.79574 44.8751 11.9014 44.8738H17.8508C18.2387 44.8738 18.5307 44.8602 18.7267 44.8329C18.9549 44.7878 19.161 44.6661 19.3106 44.4879C19.5052 44.2837 19.6025 43.9877 19.6025 43.5998L19.5883 41.7929C19.5801 40.6414 19.576 39.7295 19.576 39.0571L18.9635 39.1632C18.5756 39.234 18.0849 39.2653 17.4915 39.2571C16.8722 39.2453 16.255 39.1832 15.6458 39.0714C14.9968 38.9536 14.3859 38.6804 13.8655 38.2751C13.3192 37.862 12.9118 37.2923 12.6976 36.6418L12.4322 36.0293C12.2076 35.5466 11.9267 35.0922 11.5951 34.6756C11.214 34.1802 10.8288 33.844 10.4395 33.6671L10.2558 33.5344C10.1282 33.4419 10.0117 33.3351 9.90871 33.2159C9.81031 33.1051 9.72973 32.9798 9.66984 32.8443C9.61676 32.7191 9.66099 32.617 9.80255 32.538C9.9441 32.4564 10.2014 32.4162 10.5743 32.4176L11.1051 32.4992C11.459 32.5686 11.8966 32.7803 12.4179 33.1342C12.9448 33.4934 13.3849 33.9656 13.7062 34.5164C14.1145 35.2405 14.6059 35.7938 15.1803 36.1763C15.756 36.5574 16.3359 36.7479 16.9198 36.7479C17.5037 36.7479 18.0087 36.7037 18.4347 36.6152C18.8473 36.5297 19.2483 36.3954 19.6291 36.2151C19.7883 35.0295 20.2219 34.1176 20.9296 33.4792C20.0117 33.3885 19.102 33.2288 18.2081 33.0015C17.3358 32.7622 16.4969 32.4144 15.7111 31.9664C14.8888 31.5187 14.1625 30.9138 13.5735 30.186C13.0073 29.4782 12.5425 28.5493 12.179 27.3991C11.817 26.2477 11.636 24.9192 11.636 23.4138C11.636 21.2728 12.3349 19.4489 13.7328 17.9421C13.0794 16.332 13.1414 14.5271 13.9185 12.5276C14.433 12.367 15.1946 12.4861 16.2032 12.8849C17.2118 13.2837 17.9508 13.624 18.4204 13.9058C18.89 14.1916 19.2664 14.4312 19.5495 14.6244C21.2091 14.1617 22.9246 13.9295 24.6475 13.9344C26.4006 13.9344 28.1006 14.1644 29.7476 14.6244L30.7562 13.9874C31.532 13.5217 32.3503 13.1306 33.2001 12.8196C34.1379 12.4657 34.8552 12.3684 35.352 12.5276C36.1482 14.5285 36.2183 16.334 35.5623 17.9442C36.9615 19.4482 37.6611 21.2721 37.6611 23.4159C37.6611 24.9212 37.4794 26.2531 37.116 27.4114C36.7539 28.5711 36.285 29.5007 35.7093 30.2003C35.1082 30.917 34.3792 31.5159 33.5594 31.9664C32.7019 32.4441 31.8696 32.7891 31.0624 33.0015C30.1686 33.2295 29.2588 33.3899 28.3409 33.4813C29.2596 34.2775 29.7197 35.5338 29.721 37.2502V43.5998C29.721 43.8992 29.7653 44.1422 29.8538 44.3286C29.895 44.4182 29.9539 44.4984 30.0269 44.5647C30.0998 44.631 30.1854 44.682 30.2784 44.7145C30.4731 44.7853 30.6459 44.8289 30.797 44.8452C30.9481 44.8642 31.1645 44.8731 31.4463 44.8717H37.3957C39.5027 44.8717 41.3041 44.1238 42.8 42.6279C44.2958 41.1321 45.0438 39.3306 45.0438 37.2236V11.7314C45.0438 9.6244 44.2972 7.82297 42.8 6.32711Z" fill="white"/>
</svg>
