<svg width="50" height="49" viewBox="0 0 50 49" fill="none" xmlns="http://www.w3.org/2000/svg">
<path d="M16.2649 4.08331H33.4149C39.9483 4.08331 45.2566 9.39165 45.2566 15.925V33.075C45.2566 36.2156 44.009 39.2276 41.7883 41.4483C39.5675 43.669 36.5556 44.9166 33.4149 44.9166H16.2649C9.73161 44.9166 4.42328 39.6083 4.42328 33.075V15.925C4.42328 12.7844 5.67088 9.7724 7.89162 7.55166C10.1124 5.33091 13.1243 4.08331 16.2649 4.08331ZM15.8566 8.16665C13.9073 8.16665 12.0378 8.94102 10.6594 10.3194C9.28099 11.6978 8.50661 13.5673 8.50661 15.5166V33.4833C8.50661 37.5462 11.7937 40.8333 15.8566 40.8333H33.8233C35.7726 40.8333 37.6421 40.0589 39.0205 38.6805C40.3989 37.3022 41.1733 35.4327 41.1733 33.4833V15.5166C41.1733 11.4537 37.8862 8.16665 33.8233 8.16665H15.8566ZM35.5587 11.2291C36.2356 11.2291 36.8847 11.498 37.3633 11.9766C37.8419 12.4552 38.1108 13.1044 38.1108 13.7812C38.1108 14.4581 37.8419 15.1072 37.3633 15.5858C36.8847 16.0644 36.2356 16.3333 35.5587 16.3333C34.8818 16.3333 34.2327 16.0644 33.7541 15.5858C33.2755 15.1072 33.0066 14.4581 33.0066 13.7812C33.0066 13.1044 33.2755 12.4552 33.7541 11.9766C34.2327 11.498 34.8818 11.2291 35.5587 11.2291ZM24.8399 14.2916C27.5474 14.2916 30.1439 15.3672 32.0583 17.2816C33.9728 19.196 35.0483 21.7926 35.0483 24.5C35.0483 27.2074 33.9728 29.8039 32.0583 31.7184C30.1439 33.6328 27.5474 34.7083 24.8399 34.7083C22.1325 34.7083 19.536 33.6328 17.6216 31.7184C15.7071 29.8039 14.6316 27.2074 14.6316 24.5C14.6316 21.7926 15.7071 19.196 17.6216 17.2816C19.536 15.3672 22.1325 14.2916 24.8399 14.2916ZM24.8399 18.375C23.2155 18.375 21.6576 19.0203 20.5089 20.169C19.3603 21.3176 18.7149 22.8755 18.7149 24.5C18.7149 26.1244 19.3603 27.6824 20.5089 28.831C21.6576 29.9797 23.2155 30.625 24.8399 30.625C26.4644 30.625 28.0223 29.9797 29.171 28.831C30.3196 27.6824 30.9649 26.1244 30.9649 24.5C30.9649 22.8755 30.3196 21.3176 29.171 20.169C28.0223 19.0203 26.4644 18.375 24.8399 18.375Z" fill="white"/>
</svg>
