<svg width="49" height="49" viewBox="0 0 49 49" fill="none" xmlns="http://www.w3.org/2000/svg">
<path d="M38.7917 6.125C39.8746 6.125 40.9132 6.55521 41.679 7.32098C42.4448 8.08675 42.875 9.12537 42.875 10.2083V38.7917C42.875 39.8746 42.4448 40.9132 41.679 41.679C40.9132 42.4448 39.8746 42.875 38.7917 42.875H10.2083C9.12537 42.875 8.08675 42.4448 7.32098 41.679C6.55521 40.9132 6.125 39.8746 6.125 38.7917V10.2083C6.125 9.12537 6.55521 8.08675 7.32098 7.32098C8.08675 6.55521 9.12537 6.125 10.2083 6.125H38.7917ZM37.7708 37.7708V26.95C37.7708 25.1848 37.0696 23.4918 35.8214 22.2436C34.5732 20.9954 32.8802 20.2942 31.115 20.2942C29.3796 20.2942 27.3583 21.3558 26.3783 22.9483V20.6821H20.6821V37.7708H26.3783V27.7054C26.3783 26.1333 27.6442 24.8471 29.2163 24.8471C29.9743 24.8471 30.7014 25.1482 31.2374 25.6843C31.7734 26.2203 32.0746 26.9473 32.0746 27.7054V37.7708H37.7708ZM14.0467 17.4767C14.9564 17.4767 15.8288 17.1153 16.472 16.472C17.1153 15.8288 17.4767 14.9564 17.4767 14.0467C17.4767 12.1479 15.9454 10.5963 14.0467 10.5963C13.1316 10.5963 12.2539 10.9598 11.6069 11.6069C10.9598 12.2539 10.5963 13.1316 10.5963 14.0467C10.5963 15.9454 12.1479 17.4767 14.0467 17.4767ZM16.8846 37.7708V20.6821H11.2292V37.7708H16.8846Z" fill="white"/>
</svg>
